<?xml version="1.0" standalone="no"?>
<!DOCTYPE svg PUBLIC "-//W3C//DTD SVG 20010904//EN"
 "http://www.w3.org/TR/2001/REC-SVG-20010904/DTD/svg10.dtd">
<svg version="1.0" xmlns="http://www.w3.org/2000/svg"
 width="2489.000000pt" height="1929.000000pt" viewBox="0 0 2489.000000 1929.000000"
 preserveAspectRatio="xMidYMid meet">

<g transform="translate(0.000000,1929.000000) scale(0.100000,-0.100000)"
fill="#000000" stroke="none">
<path d="M2487 15623 c-4 -3 -7 -2676 -7 -5940 l0 -5933 10175 0 10175 0 0
5940 0 5940 -10168 0 c-5593 0 -10172 -3 -10175 -7z m19483 -1498 l0 -615
-8715 0 -8715 0 0 -395 0 -395 8715 0 8715 0 0 -1630 0 -1630 -4360 0 -4360 0
0 -415 0 -415 4360 0 4360 0 0 -1620 0 -1620 -8715 0 -8715 0 -2 -438 -3 -437
-617 -3 -618 -2 0 2060 0 2060 4360 0 4360 0 0 415 0 415 -4360 0 -4360 0 2
618 3 617 8718 3 8717 2 0 390 0 390 -8717 2 -8718 3 -3 1628 -2 1627 9335 0
9335 0 0 -615z"/>
<path d="M4540 7010 l0 -390 8100 0 8100 0 0 390 0 390 -8100 0 -8100 0 0
-390z"/>
</g>
</svg>
